<?xml version="1.0" standalone="no"?>
<!DOCTYPE svg PUBLIC "-//W3C//DTD SVG 20010904//EN"
 "http://www.w3.org/TR/2001/REC-SVG-20010904/DTD/svg10.dtd">
<svg version="1.0" xmlns="http://www.w3.org/2000/svg"
 width="612.000000pt" height="647.000000pt" viewBox="0 0 612.000000 647.000000"
 preserveAspectRatio="xMidYMid meet">

<g transform="translate(0.000000,647.000000) scale(0.100000,-0.100000)"
fill="red" stroke="black">
<path d="M2627 6423 c-9 -10 -30 -18 -46 -18 -27 -1 -101 -42 -101 -57 0 -5
-31 -8 -68 -8 -60 0 -75 -4 -115 -31 -26 -17 -47 -36 -47 -42 0 -19 -44 -77
-63 -83 -10 -3 -23 -19 -29 -35 -5 -16 -14 -29 -19 -29 -5 0 -9 -11 -9 -24 0
-13 -7 -26 -15 -30 -9 -3 -15 -18 -15 -35 0 -21 -6 -32 -19 -36 -11 -3 -22
-19 -26 -35 -4 -17 -11 -32 -16 -35 -5 -4 -9 -22 -9 -41 0 -25 4 -34 16 -34
23 0 45 -32 33 -47 -17 -20 -12 -85 16 -188 15 -55 30 -106 35 -115 4 -8 11
-33 15 -55 3 -22 15 -56 25 -75 l19 -35 1 68 c0 43 6 76 15 91 10 16 16 53 18
114 1 56 7 96 15 104 6 6 12 20 12 29 0 22 41 32 76 19 57 -22 113 -30 139
-20 20 7 27 6 31 -4 7 -18 56 -36 98 -36 39 0 61 -14 51 -30 -5 -9 -4 -11 3
-6 6 4 22 0 35 -8 18 -12 31 -13 60 -5 25 7 43 7 56 -1 42 -22 98 -3 112 39 2
6 22 13 44 15 38 3 62 -5 97 -32 14 -12 18 -11 29 6 12 19 13 19 36 -8 12 -15
23 -33 23 -39 0 -9 54 -44 62 -40 2 0 15 -4 29 -9 30 -12 69 -72 69 -108 0
-13 6 -24 13 -24 6 0 12 -11 12 -24 0 -13 -4 -22 -10 -20 -6 3 -10 -13 -10
-36 0 -23 5 -42 13 -45 6 -2 12 2 12 10 0 8 7 15 15 15 8 0 15 -7 15 -15 0
-21 13 -19 35 5 17 19 17 20 1 20 -12 0 -16 6 -12 18 2 9 14 55 26 102 12 47
34 121 48 165 32 98 37 216 10 257 -16 25 -16 27 7 58 33 44 41 86 21 106 -9
8 -16 19 -16 22 0 4 -9 13 -19 19 -16 10 -18 9 -14 -8 3 -11 0 -19 -7 -19 -8
0 -11 10 -7 28 4 21 -6 41 -42 91 -25 35 -56 68 -69 72 -15 6 -21 5 -17 -1 8
-13 -46 10 -63 27 -7 7 -25 13 -39 13 -14 0 -52 18 -85 40 -33 22 -78 45 -100
50 -21 6 -46 14 -55 17 -12 5 -14 3 -8 -7 6 -10 4 -10 -11 -2 -10 6 -27 7 -39
2 -12 -4 -41 -4 -66 0 -24 5 -46 5 -49 2 -8 -11 -50 -9 -43 1 4 6 0 8 -10 4
-9 -3 -32 0 -51 8 -43 18 -38 18 -59 -2z m57 -15 c-3 -4 -12 -8 -20 -8 -8 0
-13 4 -10 8 3 5 12 9 20 9 8 0 13 -4 10 -9z m793 -360 c-3 -8 -6 -5 -6 6 -1
11 2 17 5 13 3 -3 4 -12 1 -19z"/>
<path d="M2895 5453 c-38 -13 -72 -28 -73 -33 -2 -6 -8 -8 -12 -5 -5 3 -20 3
-33 0 -18 -5 -23 -12 -21 -31 1 -14 8 -32 16 -41 8 -10 12 -35 10 -68 -3 -44
0 -56 22 -82 28 -34 99 -63 153 -63 18 0 33 5 33 11 0 5 3 8 8 6 4 -3 13 1 20
9 11 12 10 14 -3 14 -8 0 -15 6 -15 13 0 19 27 40 77 63 23 10 43 22 43 25 0
4 -21 16 -47 27 -35 15 -42 21 -25 22 13 0 37 -7 55 -15 l32 -16 -24 21 c-13
11 -41 23 -62 26 -22 4 -39 10 -39 14 0 8 72 33 128 45 17 4 32 11 32 16 0 16
-103 56 -155 60 -34 3 -72 -3 -120 -18z m172 -186 c-4 -13 -57 -29 -57 -17 0
25 13 37 36 32 14 -2 23 -9 21 -15z m-147 -7 c0 -5 -4 -10 -10 -10 -5 0 -10 5
-10 10 0 6 5 10 10 10 6 0 10 -4 10 -10z"/>
<path d="M2297 5391 c-32 -21 -46 -41 -40 -57 3 -9 10 -11 22 -5 18 10 121 -7
121 -20 0 -4 -8 -10 -18 -13 -20 -7 -71 -56 -58 -56 4 0 15 9 24 19 10 10 31
22 47 25 l30 6 -30 -16 c-37 -20 -75 -54 -75 -67 0 -5 6 -7 14 -4 8 3 24 -4
36 -15 12 -11 24 -17 27 -14 3 3 12 1 20 -5 7 -6 13 -8 13 -5 0 4 7 0 16 -8
10 -10 33 -16 63 -16 39 0 52 5 74 28 15 15 27 36 27 45 0 10 5 26 12 36 9 15
9 23 -3 37 -7 9 -18 31 -24 47 -18 53 -47 65 -168 69 -82 3 -114 0 -130 -11z
m130 -168 c16 -35 12 -38 -33 -23 l-38 13 23 18 c30 25 34 24 48 -8z"/>
<path d="M3428 5325 c-2 -3 6 -35 18 -72 30 -88 31 -151 3 -187 -24 -31 -21
-45 4 -18 21 23 38 111 31 155 -9 51 -35 127 -43 127 -4 0 -10 -2 -13 -5z"/>
<path d="M2141 5173 c0 -43 4 -87 9 -98 8 -19 9 -7 14 147 1 12 -5 23 -11 26
-10 3 -13 -16 -12 -75z"/>
<path d="M3359 5218 c-1 -7 -2 -33 -4 -58 -2 -25 -6 -60 -10 -77 -6 -26 -4
-33 9 -33 8 0 20 9 26 20 6 11 21 20 34 20 48 0 48 58 1 105 -36 36 -54 44
-56 23z"/>
<path d="M2206 5073 c-8 -33 -2 -53 15 -53 11 0 11 37 0 65 -7 18 -9 16 -15
-12z"/>
<path d="M2880 4973 c0 -54 -5 -65 -37 -82 -13 -6 -20 -17 -17 -25 6 -17 -11
-16 -45 3 -17 9 -26 10 -34 2 -6 -6 -24 -11 -40 -11 -26 0 -29 -3 -23 -22 3
-13 6 -33 6 -46 0 -30 40 -46 56 -23 10 13 14 13 29 1 16 -13 16 -15 -2 -21
-10 -4 -40 -8 -68 -8 -32 -1 -62 -9 -84 -22 -22 -13 -42 -18 -61 -14 -20 4
-29 2 -34 -10 -11 -29 1 -32 88 -28 69 2 88 0 101 -14 16 -15 16 -17 -2 -26
-10 -6 -27 -20 -39 -33 l-21 -22 38 -22 c54 -30 139 -43 160 -24 21 19 13 63
-13 73 -16 6 -12 12 30 44 49 37 76 45 86 28 9 -13 44 -2 51 17 3 9 -3 24 -14
36 -18 17 -23 18 -44 7 -28 -15 -79 -7 -97 14 -9 11 -7 17 9 27 12 7 21 18 21
25 0 7 5 13 10 13 6 0 10 10 10 23 0 12 12 39 26 60 l25 38 -23 41 c-33 60
-48 60 -48 1z m-120 -323 c0 -5 -4 -10 -10 -10 -5 0 -10 5 -10 10 0 6 5 10 10
10 6 0 10 -4 10 -10z"/>
<path d="M3321 4981 c-1 -27 2 -32 11 -23 8 8 8 17 0 34 -10 22 -11 21 -11
-11z"/>
<path d="M2790 4910 c-22 -13 -5 -23 27 -16 21 6 24 9 12 17 -18 11 -20 11
-39 -1z"/>
<path d="M2620 4886 c0 -2 7 -7 16 -10 8 -3 12 -2 9 4 -6 10 -25 14 -25 6z"/>
<path d="M2758 4444 c-21 -14 -38 -29 -38 -34 0 -6 -9 -10 -20 -10 -24 0 -27
-25 -4 -34 9 -4 14 -9 11 -12 -3 -3 -15 0 -27 6 -15 8 -20 8 -16 1 4 -6 28
-16 52 -22 29 -8 66 -29 101 -59 l54 -47 33 33 c52 52 102 134 81 134 -3 0
-23 -9 -44 -19 -21 -11 -48 -17 -60 -14 -11 3 -21 1 -21 -4 0 -13 -39 -11 -44
3 -3 7 1 18 9 24 10 8 11 18 4 40 -14 39 -28 41 -71 14z"/>
<path d="M3107 4218 c-8 -13 -25 -34 -38 -47 -21 -23 -23 -23 -36 -5 -7 10
-13 15 -13 12 0 -4 -14 -3 -30 2 -19 5 -28 5 -25 -1 4 -5 1 -9 -4 -9 -6 0 -11
5 -11 11 0 6 -12 9 -27 7 -22 -2 -29 -9 -31 -30 -2 -20 5 -32 32 -53 33 -25
35 -30 30 -66 -5 -30 -2 -44 11 -59 10 -11 15 -26 11 -35 -8 -22 4 -66 16 -59
10 6 38 -13 38 -27 0 -5 -6 -9 -14 -9 -8 0 -18 -6 -22 -12 -4 -7 -4 -10 1 -6
4 4 14 3 22 -3 10 -9 13 -8 13 5 0 9 5 16 11 16 6 0 9 7 5 15 -3 8 -2 15 3 15
5 0 11 -13 15 -30 7 -37 19 -38 112 -9 81 25 163 64 237 113 64 43 177 158
202 205 l18 35 -25 -16 c-17 -11 -38 -15 -62 -12 -36 4 -44 -2 -50 -38 -3 -22
-17 -39 -27 -32 -6 3 -20 -4 -31 -16 -13 -14 -23 -18 -27 -11 -12 19 -94 21
-108 2 -9 -11 -12 -12 -13 -3 0 7 -4 11 -9 7 -5 -3 -12 -1 -16 5 -3 5 -17 10
-31 10 -21 0 -25 4 -22 23 3 22 -37 71 -51 63 -4 -3 -8 4 -8 15 -1 10 4 19 10
19 12 1 -21 30 -34 30 -4 0 -13 -10 -22 -22z m-89 -124 c-10 -10 -23 -14 -34
-10 -16 6 -16 8 -4 16 8 6 24 10 35 10 18 0 18 -1 3 -16z"/>
<path d="M2827 3831 c-4 -15 2 -20 32 -25 44 -7 106 -6 76 1 -11 3 -26 14 -33
24 -18 26 -68 25 -75 0z"/>
<path d="M4153 3040 c0 -30 2 -43 4 -27 2 15 2 39 0 55 -2 15 -4 2 -4 -28z"/>
<path d="M4101 3020 c0 -14 4 -34 9 -45 8 -18 9 -18 9 5 0 14 -4 34 -9 45 -8
18 -9 18 -9 -5z"/>
<path d="M4199 2885 c-23 -39 -39 -45 -39 -16 0 10 -7 25 -16 32 -15 12 -16
11 -11 -6 18 -65 18 -103 -2 -136 -21 -35 -21 -35 -2 -102 11 -37 23 -93 27
-124 17 -142 22 -132 20 39 0 80 -5 146 -11 150 -11 8 21 114 44 141 13 16 23
57 14 57 -2 0 -13 -16 -24 -35z"/>
<path d="M4095 2450 c-3 -5 -5 -52 -4 -105 1 -52 -3 -101 -8 -108 -9 -10 -20
-45 -29 -83 -1 -7 4 -63 11 -125 8 -67 11 -154 8 -211 -4 -72 -3 -98 6 -98 9
0 9 -5 1 -20 -8 -16 -7 -26 5 -42 8 -13 15 -32 15 -44 0 -17 5 -21 20 -17 11
3 20 0 20 -6 0 -6 6 -11 13 -11 11 0 56 85 61 114 1 6 5 17 9 23 4 7 3 61 -4
120 -6 60 -12 210 -13 335 -1 155 -4 228 -12 228 -6 0 -26 14 -44 30 -36 32
-45 36 -55 20z"/>
<path d="M4445 2410 c78 -10 197 -11 145 -1 -19 4 -73 7 -120 8 -84 1 -84 1
-25 -7z"/>
<path d="M1963 2403 c-20 -7 -15 -20 8 -26 14 -4 20 -11 16 -21 -8 -21 8 -29
23 -12 9 12 8 20 -5 40 -18 27 -21 28 -42 19z"/>
<path d="M1622 2219 c27 -10 31 -29 15 -71 -15 -38 -15 -47 -4 -51 8 -3 2 -14
-14 -31 -20 -20 -28 -40 -33 -87 -4 -34 -14 -72 -22 -84 -7 -12 -15 -33 -16
-47 -1 -16 -7 -24 -15 -21 -9 3 -13 -4 -13 -20 0 -14 -7 -27 -15 -31 -8 -3
-15 -10 -15 -17 0 -19 -43 -48 -97 -64 -45 -13 -56 -21 -73 -56 -12 -22 -18
-44 -15 -49 3 -6 1 -10 -5 -10 -7 0 -9 -8 -5 -22 4 -13 8 -27 9 -33 0 -5 5
-14 9 -20 5 -5 23 -37 40 -70 28 -52 37 -62 75 -74 24 -7 45 -11 48 -9 2 3 0
18 -6 33 -12 31 -6 45 12 27 14 -14 42 -16 34 -3 -4 5 4 7 16 3 15 -4 19 -2
14 7 -6 8 -2 11 10 9 20 -3 31 25 33 84 1 20 5 39 10 42 5 4 12 25 16 49 10
65 46 171 82 239 8 15 15 48 16 72 2 29 13 58 30 83 18 26 25 48 23 68 -4 35
36 105 59 105 13 0 17 6 14 26 0 4 5 10 12 15 7 4 -12 7 -42 6 -30 -1 -90 1
-134 5 -59 5 -73 4 -53 -3z"/>
<path d="M4367 1553 c-4 -3 -7 -19 -7 -35 0 -26 2 -28 15 -14 8 8 15 24 15 35
0 21 -11 27 -23 14z"/>
<path d="M4493 863 c-20 -7 -15 -23 7 -23 11 0 20 4 20 9 0 13 -12 19 -27 14z"/>
<path d="M4484 821 c4 -6 0 -24 -9 -41 -16 -31 -13 -50 8 -50 7 0 14 14 15 32
2 18 7 35 12 38 5 3 0 11 -11 19 -12 7 -18 8 -15 2z"/>
<path d="M4439 685 c0 -16 -2 -40 -3 -52 -3 -28 10 -30 24 -3 8 15 8 20 -1 20
-8 0 -9 4 0 13 8 10 7 19 -4 33 -14 18 -14 17 -16 -11z"/>
<path d="M4420 590 c0 -5 5 -10 10 -10 6 0 10 5 10 10 0 6 -4 10 -10 10 -5 0
-10 -4 -10 -10z"/>
</g>
</svg>
