<?xml version="1.0" standalone="no"?>
<!DOCTYPE svg PUBLIC "-//W3C//DTD SVG 20010904//EN"
 "http://www.w3.org/TR/2001/REC-SVG-20010904/DTD/svg10.dtd">
<svg version="1.0" xmlns="http://www.w3.org/2000/svg"
 width="190.000000pt" height="170.000000pt" viewBox="0 0 190.000000 170.000000"
 preserveAspectRatio="xMidYMid meet">

<g transform="translate(0.000000,170.000000) scale(0.100000,-0.100000)"
fill="#000000" stroke="none">
<path d="M809 1684 c-11 -14 -9 -15 27 -10 34 6 36 5 17 -5 -34 -18 -28 -29
17 -29 41 0 49 7 28 28 -9 9 -8 12 4 12 9 0 20 5 23 10 11 18 -101 12 -116 -6z"/>
<path d="M763 1637 c14 -21 15 -32 7 -47 -9 -17 -8 -20 11 -20 12 0 20 -3 16
-6 -3 -4 0 -13 8 -21 24 -23 19 -46 -7 -40 -75 17 -85 17 -97 3 -11 -13 -9
-17 10 -25 40 -15 109 -23 109 -14 0 6 27 4 63 -3 34 -8 74 -14 89 -14 35 0
131 36 160 60 22 19 22 19 2 20 -31 0 -63 36 -76 86 -14 50 -29 56 -47 18 -11
-24 -15 -26 -69 -23 -32 2 -67 -2 -79 -9 -18 -10 -27 -10 -43 0 -11 7 -20 16
-20 19 0 4 -12 15 -27 25 l-28 17 18 -26z"/>
<path d="M497 1208 c-21 -58 -62 -132 -74 -136 -9 -3 -13 12 -13 52 0 31 -1
56 -3 56 -2 0 -28 -23 -58 -50 -30 -28 -61 -52 -69 -55 -8 -3 -21 -24 -28 -47
-13 -40 -12 -44 9 -61 32 -25 95 -20 92 8 -1 11 0 14 3 8 9 -22 32 -14 54 17
14 20 30 30 46 30 15 0 36 12 52 29 15 16 43 46 62 67 19 21 34 42 32 47 -1 4
2 5 8 2 6 -4 9 -14 6 -22 -3 -8 1 -24 9 -36 l15 -21 0 22 c0 52 -59 122 -103
122 -23 0 -31 -6 -40 -32z"/>
<path d="M1393 1135 c0 -22 2 -30 4 -17 2 12 2 30 0 40 -3 9 -5 -1 -4 -23z"/>
<path d="M625 1070 c-3 -5 -4 -10 -1 -10 3 0 1 -12 -4 -27 -9 -26 -9 -27 5 -9
8 11 15 28 15 38 0 20 -6 23 -15 8z"/>
<path d="M1389 1037 c-3 -66 2 -111 12 -121 5 -6 9 -37 9 -70 0 -55 1 -59 16
-45 13 14 14 27 5 93 -6 43 -11 99 -11 126 0 33 -5 50 -15 54 -12 4 -15 -4
-16 -37z"/>
<path d="M1508 1073 c17 -2 47 -2 65 0 17 2 3 4 -33 4 -36 0 -50 -2 -32 -4z"/>
<path d="M1461 794 c-13 -13 -21 -27 -17 -31 3 -3 6 0 6 8 1 10 5 8 15 -5 19
-25 27 -16 23 23 l-3 30 -24 -25z"/>
<path d="M1430 701 c-12 -24 -13 -34 -1 -27 9 6 22 46 15 46 -2 0 -8 -9 -14
-19z"/>
<path d="M1530 627 c0 -13 -4 -27 -9 -32 -14 -16 -34 -87 -37 -129 -2 -44 -29
-111 -56 -142 -10 -11 -27 -38 -38 -58 -16 -32 -16 -38 -4 -43 8 -3 16 -4 17
-2 1 2 12 18 25 36 12 18 22 37 22 42 0 5 9 25 20 43 24 42 57 148 65 213 3
28 8 60 11 73 2 12 0 22 -6 22 -5 0 -10 -10 -10 -23z"/>
<path d="M1440 78 c0 -29 4 -48 11 -48 6 0 8 7 5 17 -4 9 -2 19 3 22 5 4 4 16
-4 31 -14 24 -14 23 -15 -22z"/>
<path d="M809 56 c7 -9 11 -25 8 -36 -5 -18 0 -20 58 -20 41 0 65 4 69 13 5
10 7 10 12 0 8 -17 175 -18 192 -1 9 9 12 9 12 0 0 -26 36 -11 47 19 10 27 10
30 -4 25 -8 -3 -47 -11 -86 -17 -92 -14 -188 -5 -302 28 -17 5 -18 4 -6 -11z"/>
<path d="M1316 21 c-4 -7 -5 -15 -2 -18 9 -9 19 4 14 18 -4 11 -6 11 -12 0z"/>
</g>
</svg>
