<?xml version="1.0" standalone="no"?>
<!DOCTYPE svg PUBLIC "-//W3C//DTD SVG 20010904//EN"
 "http://www.w3.org/TR/2001/REC-SVG-20010904/DTD/svg10.dtd">
<svg version="1.0" xmlns="http://www.w3.org/2000/svg"
 width="190.000000pt" height="170.000000pt" viewBox="0 0 190.000000 170.000000"
 preserveAspectRatio="xMidYMid meet">

<g transform="translate(0.000000,170.000000) scale(0.100000,-0.100000)"
fill="#000000" stroke="none">
<path d="M785 1664 c-25 -62 -18 -68 35 -31 18 12 36 31 40 43 7 17 4 20 -26
22 -30 2 -35 -1 -49 -34z"/>
<path d="M613 1663 c-18 -7 -16 -23 2 -23 8 0 15 7 15 15 0 8 -1 15 -2 14 -2
0 -9 -3 -15 -6z"/>
<path d="M670 1630 c-8 -5 -11 -12 -7 -16 4 -4 15 0 24 9 18 18 8 23 -17 7z"/>
<path d="M662 1150 c0 -14 2 -19 5 -12 2 6 2 18 0 25 -3 6 -5 1 -5 -13z"/>
<path d="M657 1056 c-13 -88 -9 -166 8 -166 21 0 23 43 7 160 l-8 55 -7 -49z"/>
<path d="M485 721 c-8 -17 -19 -31 -23 -31 -4 0 -8 -20 -9 -43 -2 -35 2 -48
22 -67 30 -28 47 -22 69 25 17 36 17 39 -1 88 -11 28 -25 53 -31 55 -6 2 -18
-11 -27 -27z"/>
<path d="M610 152 c0 -10 -5 -23 -11 -29 -11 -11 -4 -53 9 -53 4 0 14 20 23
44 14 39 14 46 2 50 -21 9 -23 8 -23 -12z"/>
<path d="M448 45 l-3 -45 37 0 c43 0 44 0 22 42 -13 24 -18 28 -26 17 -7 -10
-8 -8 -5 9 3 14 0 22 -8 22 -8 0 -14 -16 -17 -45z"/>
<path d="M780 75 c9 -10 7 -16 -8 -24 -11 -6 -22 -8 -26 -6 -3 3 -3 2 0 -2 6
-8 11 -10 44 -12 11 0 20 -6 20 -12 0 -5 -5 -7 -12 -3 -6 4 -8 3 -4 -4 4 -7
82 -11 240 -12 l234 0 5 27 c3 16 5 29 4 30 -1 1 -25 -3 -52 -9 -28 -6 -113
-11 -190 -11 -129 -1 -145 1 -203 25 -34 14 -58 20 -52 13z"/>
<path d="M1313 65 c-3 -9 -3 -19 1 -22 3 -4 6 -1 6 6 0 7 5 9 10 6 6 -3 10 1
10 9 0 21 -19 21 -27 1z"/>
</g>
</svg>
