<?xml version="1.0" standalone="no"?>
<!DOCTYPE svg PUBLIC "-//W3C//DTD SVG 20010904//EN"
 "http://www.w3.org/TR/2001/REC-SVG-20010904/DTD/svg10.dtd">
<svg version="1.0" xmlns="http://www.w3.org/2000/svg"
 width="190.000000pt" height="170.000000pt" viewBox="0 0 190.000000 170.000000"
 preserveAspectRatio="xMidYMid meet">

<g transform="translate(0.000000,170.000000) scale(0.100000,-0.100000)"
fill="#000000" stroke="none">
<path d="M1147 1401 c-8 -38 3 -132 14 -125 12 7 12 141 0 148 -5 3 -11 -7
-14 -23z"/>
<path d="M680 1353 c-7 -21 -23 -48 -36 -61 -20 -19 -22 -27 -14 -42 20 -37
39 -21 59 50 7 25 19 55 27 68 13 20 13 22 -5 22 -14 0 -23 -11 -31 -37z"/>
<path d="M793 853 c4 -3 -2 -21 -14 -39 -16 -27 -19 -42 -14 -76 6 -36 15 -49
55 -80 64 -49 93 -121 92 -230 -1 -43 -6 -87 -12 -99 -10 -17 -9 -20 2 -17 9
3 17 37 24 104 11 98 30 197 44 222 3 7 17 -60 29 -150 12 -90 28 -184 35
-209 l14 -44 12 27 c10 21 10 31 1 42 -9 10 -9 16 -1 21 7 4 14 -2 17 -15 8
-30 25 -4 18 30 -2 14 -7 55 -10 91 l-5 66 50 7 c34 5 50 11 50 21 0 8 -1 15
-2 15 -2 0 -25 -7 -52 -15 -43 -13 -47 -13 -42 1 3 8 2 12 -4 9 -6 -3 -10 -18
-11 -33 l0 -27 -11 25 c-6 14 -8 58 -4 103 l5 77 -24 -6 c-28 -7 -33 7 -10 26
16 14 29 68 22 97 -3 13 -10 5 -26 -30 -27 -58 -41 -55 -17 3 9 22 16 44 16
49 0 5 -29 9 -64 10 -35 1 -85 8 -112 16 -56 17 -60 18 -51 8z m52 -163 c8
-13 -5 -13 -25 0 -13 8 -13 10 2 10 9 0 20 -4 23 -10z m175 -158 c0 -15 -2
-15 -10 -2 -13 20 -13 33 0 25 6 -3 10 -14 10 -23z m24 -158 c9 -24 2 -26 -12
-4 -7 11 -8 20 -3 20 5 0 12 -7 15 -16z"/>
<path d="M1161 764 c0 -11 3 -14 6 -6 3 7 2 16 -1 19 -3 4 -6 -2 -5 -13z"/>
<path d="M1083 748 c-16 -20 -26 -58 -15 -58 10 0 35 60 28 67 -2 2 -8 -2 -13
-9z"/>
<path d="M1107 733 c-11 -10 -8 -25 3 -18 6 3 10 0 10 -7 0 -8 5 -6 11 5 6 10
8 21 5 24 -3 4 -6 0 -6 -8 0 -11 -2 -11 -8 -1 -5 7 -11 9 -15 5z"/>
<path d="M1142 709 c-9 -14 -20 -19 -33 -16 -10 3 -17 1 -13 -4 3 -5 1 -9 -5
-9 -7 0 -7 -8 -2 -22 4 -13 7 -33 6 -45 -1 -18 3 -23 19 -22 28 2 84 16 68 18
-7 0 -11 5 -8 10 3 5 -1 14 -9 21 -10 8 -11 18 -5 36 6 15 6 24 0 24 -5 0 -7
7 -4 15 9 22 1 18 -14 -6z m1 -96 c-7 -2 -19 -2 -25 0 -7 3 -2 5 12 5 14 0 19
-2 13 -5z"/>
<path d="M1107 553 c-4 -3 -7 -11 -7 -17 0 -6 5 -5 12 2 6 6 9 14 7 17 -3 3
-9 2 -12 -2z"/>
<path d="M716 492 c-8 -14 14 -73 25 -66 5 3 9 16 9 28 0 26 -25 53 -34 38z"/>
<path d="M893 288 c-20 -31 -31 -58 -23 -53 11 7 43 65 36 65 -3 0 -8 -6 -13
-12z"/>
<path d="M740 262 c0 -18 4 -19 36 -12 45 10 55 20 21 20 -14 0 -32 3 -41 6
-11 4 -16 0 -16 -14z"/>
<path d="M1060 241 c-13 -25 -13 -34 0 -26 6 4 10 -7 10 -24 0 -17 5 -31 10
-31 6 0 10 16 10 35 0 19 -4 35 -10 35 -5 0 -7 7 -4 15 9 22 -3 18 -16 -4z"/>
<path d="M902 228 c-5 -7 -12 -41 -14 -75 -3 -50 -1 -62 11 -66 14 -3 16 9 17
75 0 43 -1 78 -2 78 -1 0 -6 -6 -12 -12z"/>
<path d="M847 213 c-4 -3 -7 -13 -7 -22 1 -13 3 -13 11 2 11 19 8 33 -4 20z"/>
<path d="M770 194 c0 -5 13 -21 29 -35 25 -22 31 -24 36 -10 3 8 3 12 -1 8 -4
-4 -20 5 -36 20 -15 15 -28 22 -28 17z"/>
<path d="M750 101 c0 -16 3 -37 6 -46 6 -14 9 -14 29 5 30 28 41 11 20 -30
l-16 -30 30 0 c25 0 29 3 24 17 -6 16 -3 15 17 -2 l23 -20 -11 20 c-15 27
-100 115 -112 115 -6 0 -10 -13 -10 -29z"/>
<path d="M1036 52 c1 -38 5 -47 20 -49 11 -2 13 0 7 3 -7 3 -13 23 -13 44 0
21 -3 41 -7 43 -5 3 -7 -16 -7 -41z"/>
</g>
</svg>
